HIERARCHY
ROOT Hips
{
  OFFSET 149.297 18.2757 122.403
  CHANNELS 6 Xposition Yposition Zposition Zrotation Xrotation Yrotation
  JOINT ToSpine
  {
    OFFSET -0.0105055 1.38907 -7.13956
    CHANNELS 3 Zrotation Xrotation Yrotation
    JOINT Spine
    {
      OFFSET 0.0105055 10 1
      CHANNELS 3 Zrotation Xrotation Yrotation
      JOINT Spine1
      {
        OFFSET 0 12 1.60637
        CHANNELS 3 Zrotation Xrotation Yrotation
        JOINT Neck
        {
          OFFSET 0 27 2.26658
          CHANNELS 3 Zrotation Xrotation Yrotation
          JOINT Head
          {
            OFFSET 0 9 2.12705
            CHANNELS 3 Zrotation Xrotation Yrotation
            End Site
            {
              OFFSET 0 11 2
            }
          }
        }
        JOINT LeftShoulder
        {
          OFFSET 8 19.6109 2.86452
          CHANNELS 3 Zrotation Xrotation Yrotation
          JOINT LeftArm
          {
            OFFSET 12 1 0.681055
            CHANNELS 3 Zrotation Xrotation Yrotation
            JOINT LeftForeArm
            {
              OFFSET 19 0 -1.52608
              CHANNELS 3 Zrotation Xrotation Yrotation
              JOINT LeftHand
              {
                OFFSET 23 0 0
                CHANNELS 3 Zrotation Xrotation Yrotation
                End Site
                {
                  OFFSET 10 0 0
                }
              }
            }
          }
        }
        JOINT RightShoulder
        {
          OFFSET -8 19.6109 2.86452
          CHANNELS 3 Zrotation Xrotation Yrotation
          JOINT RightArm
          {
            OFFSET -12 1 0.681055
            CHANNELS 3 Zrotation Xrotation Yrotation
            JOINT RightForeArm
            {
              OFFSET -19 0 -1.52608
              CHANNELS 3 Zrotation Xrotation Yrotation
              JOINT RightHand
              {
                OFFSET -23 0 0
                CHANNELS 3 Zrotation Xrotation Yrotation
                End Site
                {
                  OFFSET -10 0 0
                }
              }
            }
          }
        }
      }
    }
  }
  JOINT LeftUpLeg
  {
    OFFSET 9 -7.17245 0
    CHANNELS 3 Zrotation Xrotation Yrotation
    JOINT LeftLeg
    {
      OFFSET 0 -44.1113 0
      CHANNELS 3 Zrotation Xrotation Yrotation
      JOINT LeftFoot
      {
        OFFSET 0 -36.1829 0
        CHANNELS 3 Zrotation Xrotation Yrotation
        JOINT LeftToeBase
        {
          OFFSET 0 -4.84184 13
          CHANNELS 3 Zrotation Xrotation Yrotation
          End Site
          {
            OFFSET 0 1 6
          }
        }
      }
    }
  }
  JOINT RightUpLeg
  {
    OFFSET -9 -7.17245 0
    CHANNELS 3 Zrotation Xrotation Yrotation
    JOINT RightLeg
    {
      OFFSET 0 -44.0551 0
      CHANNELS 3 Zrotation Xrotation Yrotation
      JOINT RightFoot
      {
        OFFSET 0 -36.1469 0
        CHANNELS 3 Zrotation Xrotation Yrotation
        JOINT RightToeBase
        {
          OFFSET 0 -4.92256 13
          CHANNELS 3 Zrotation Xrotation Yrotation
          End Site
          {
            OFFSET 0 1 6
          }
        }
      }
    }
  }
}
MOTION
Frames:	15
Frame Time:	0.0333333
149.334 18.3458 122.379 85.5086 -1.27067 -86.0793 0 0 0 6.87486 -5.62746 -1.32925 -9.75721 4.88889 -0.296746 13.8251 -46.9873 8.41949 -11.3512 17.4553 9.1991 12.2838 -0.19389 -4.94301 -14.6694 -56.6167 -44.4651 15.1911 -3.809 -103.748 -10.3648 -0.345484 3.80581 -14.6485 -0.379807 5.19898 3.77638 -52.6842 22.8733 8.60109 2.252 104.563 -2.52353 -0.0912094 4.21994 6.75953 -2.51899 12.4905 -3.08134 24.4987 -10.7983 5.71898 3.41106 -0.170335 5.3005 -33.3062 41.1994 -8.06222 2.9493 -17.0227 1.38077 21.3266 11.3429 -16.077 -8.70364 -1.22109 6.84909 -25.3244 -1.14067 
149.434 18.497 122.318 85.9483 -1.64546 -86.3834 0 0 0 6.36008 -6.03133 -1.20361 -9.87028 5.08359 -0.107664 10.283 -46.0376 7.57915 -6.24752 14.5043 7.13801 12.5499 -0.21319 -4.92962 -15.0782 -56.5769 -44.6637 15.1122 -3.82008 -103.859 -9.92258 -0.355467 4.10813 -14.6665 -0.401556 5.68262 3.49006 -52.7024 22.0151 8.20455 2.09649 104.237 -3.38434 -0.158636 5.22926 6.36479 -3.15477 12.5442 -3.15447 24.7635 -10.5375 5.58051 3.50577 -0.171382 5.4611 -33.5819 41.3261 -8.46812 2.1702 -17.3925 1.2905 21.5584 11.1611 -18.6329 -7.17068 -1.18192 7.56051 -27.5681 -0.596426 
149.407 18.1728 122.394 84.7803 -1.00884 -85.7831 0 0 0 7.63944 -5.73878 -1.44008 -10.3824 5.77915 -0.381399 5.33947 -45.6782 6.36746 -1.52646 13.1705 5.18996 11.981 -0.172471 -4.99322 -14.3879 -56.1528 -44.4285 13.6717 -3.47926 -104.008 -9.04982 -0.366764 4.6289 -15.6282 -0.443756 4.94028 7.85368 -53.177 24.7359 2.92897 0.789453 105.072 -4.54691 -0.298278 5.21359 7.28649 -1.98994 12.7693 -3.01236 25.2546 -11.7016 5.51931 2.59044 -0.124079 5.14594 -32.9378 41.8088 -7.55982 4.42942 -16.9777 1.8362 20.0299 10.3545 -18.3898 -6.81273 -1.10416 7.62608 -27.9405 -0.907597 
149.403 17.7561 122.508 83.4004 -0.257752 -84.8613 0 0 0 9.26622 -5.97607 -1.84278 -11.5747 7.18424 -0.710984 6.3365 -45.4057 6.6575 -2.62524 13.2341 5.69465 12.1565 -0.192013 -5.24902 -14.1083 -56.1267 -44.003 13.8201 -3.48362 -103.875 -9.31113 -0.338324 4.14989 -16.6385 -0.566693 5.78507 8.68323 -57.3873 22.9268 -7.70063 -2.60535 108.581 2.79462 -0.00182146 -1.90331 8.25124 -0.66941 12.7443 -2.75137 25.815 -12.8148 5.80287 1.9749 -0.100857 5.0468 -32.758 41.8014 -6.55756 7.24555 -16.5421 2.62124 17.9964 9.24635 -18.3985 -5.89254 -0.955091 7.80655 -28.7738 -1.30861 
149.386 17.8123 122.495 83.6045 -0.310886 -84.7196 0 0 0 9.48789 -5.65574 -1.86083 -12.2202 6.24059 -0.656468 7.62731 -44.6024 7.02878 -3.3937 12.5337 6.16406 12.8 -0.25797 -5.93064 -14.3214 -55.7061 -43.5691 14.3609 -3.67246 -104.046 -9.35469 -0.390227 4.76503 -15.5348 -0.470821 5.64041 8.18628 -56.6373 23.267 -6.67217 -2.20718 108.223 3.4097 -0.0229304 -0.766184 8.20768 -1.09801 12.6898 -2.57366 26.1328 -12.9148 5.03185 1.5197 -0.0659027 4.77411 -32.2803 41.6104 -6.5656 7.0374 -16.6001 2.6459 17.9289 9.10282 -18.5837 -5.89436 -0.965184 7.57678 -27.839 -1.04045 
149.389 17.7952 122.495 83.563 -0.34576 -84.9646 0 0 0 9.63947 -5.66736 -1.6931 -12.602 6.23017 -0.401111 8.00995 -44.1071 7.14255 -3.18357 12.0991 6.20479 13.4977 -0.333477 -6.28195 -14.5776 -55.5358 -43.2535 14.435 -3.64379 -103.869 -9.24409 -0.339563 4.19784 -15.5009 -0.478276 5.94282 7.81523 -56.5039 22.2901 -6.75077 -2.27176 108.514 2.95896 -0.0220323 -0.966527 8.15431 -0.883063 12.7958 -2.71915 26.0113 -12.5653 5.6313 1.2462 -0.0617792 4.37956 -31.5533 41.5887 -6.64601 6.98789 -16.5584 2.55583 18.089 9.29659 -18.446 -6.03974 -0.981616 7.86737 -28.7557 -0.860443 
149.433 17.8303 122.488 83.6641 -0.172819 -84.9616 0 0 0 10.3789 -5.28963 -1.55727 -13.823 4.83078 -0.130178 10.7184 -40.9606 7.18841 -5.52146 10.1821 7.01088 14.8759 -0.53528 -8.25505 -14.1355 -54.6242 -41.3231 15.1241 -3.89898 -104.122 -9.35181 -0.393718 4.80992 -14.2084 -0.494533 8.83038 1.40445 -56.0772 14.9907 -5.98253 -2.07903 109.095 2.96095 -0.0211486 -0.951315 8.40053 -1.03326 12.977 -2.75897 25.9451 -12.8075 5.49231 1.97102 -0.0953908 5.24439 -33.1046 41.8979 -6.46245 6.82564 -16.5237 2.58266 18.1164 9.19218 -18.5616 -6.0376 -0.987523 7.61532 -27.9949 -1.08843 
149.421 17.819 122.499 83.5946 -0.275705 -84.9954 0 0 0 10.4024 -5.13326 -1.5807 -14.0242 4.75087 -0.109126 11.0112 -40.9064 7.22903 -5.67846 10.1044 7.07877 15.1265 -0.558328 -8.14692 -14.8485 -54.6746 -41.6967 15.1898 -3.92351 -104.145 -9.37013 -0.393349 4.81028 -13.6757 -0.43218 8.77452 0.684914 -56.2219 15.016 -5.7724 -1.97879 108.859 2.88025 -0.0202824 -0.892366 8.25217 -0.961987 12.8543 -2.67973 25.9946 -12.7311 4.88357 1.61666 -0.0700426 5.06144 -32.747 42.0878 -6.58817 6.87834 -16.6068 2.53162 18.1921 9.37554 -18.5365 -6.07893 -0.993029 7.53784 -27.7407 -1.12406 
149.427 17.8106 122.512 83.5127 -0.309698 -85.1885 0 0 0 10.4276 -5.17472 -1.55034 -14.0208 4.98086 -0.0450879 10.7319 -41.0382 7.17766 -5.26918 10.1549 6.91891 15.1996 -0.556219 -7.95408 -14.8231 -54.7081 -41.6414 15.1578 -3.93475 -104.214 -9.32382 -0.392409 4.86079 -14.161 -0.475603 8.53075 2.30521 -56.1618 16.0487 -6.17653 -2.15309 109.145 2.94957 -0.019436 -1.15665 8.15054 -0.707905 12.8052 -2.81122 25.7176 -12.4302 5.89619 2.09099 -0.107876 5.20575 -32.9501 42.5086 -6.67578 6.84365 -16.6133 2.43132 18.4124 9.59258 -18.1605 -6.2052 -0.990495 7.79867 -28.66 -1.13813 
149.439 17.8271 122.524 83.6182 -0.339826 -84.9366 0 0 0 10.6398 -5.30174 -1.75326 -14.63 4.91159 -0.154702 12.0684 -40.3285 7.15024 -6.58187 9.52066 7.25537 15.9756 -0.630472 -7.87883 -15.6369 -54.6782 -41.7048 15.2595 -3.98464 -104.29 -9.46964 -0.390853 4.71174 -13.1062 -0.365949 8.65276 1.48091 -56.2233 16.2287 -6.13468 -2.0999 108.825 2.95293 -0.0186172 -1.14264 8.14152 -1.00288 12.7985 -2.65847 25.9785 -12.7343 5.12391 1.6998 -0.0757387 5.15775 -32.8418 42.6774 -6.6903 6.8486 -16.7954 2.53554 18.2771 9.45693 -18.3524 -6.20428 -0.99478 7.6018 -27.958 -1.11148 
149.434 17.8286 122.521 83.5153 -0.288921 -85.0297 0 0 0 10.9454 -5.10251 -1.79935 -15.0893 4.72714 -0.11108 12.6547 -40.063 7.42714 -6.95461 9.06758 7.57874 16.5755 -0.692442 -7.90981 -16.1015 -54.652 -41.5708 15.4154 -4.06302 -104.411 -9.55723 -0.392469 4.69236 -12.9612 -0.376377 9.54503 -0.135151 -56.2653 14.0974 -5.87696 -2.03121 109 2.9103 -0.0178293 -1.02477 8.20328 -0.772899 12.8207 -2.74825 25.747 -12.6263 5.57966 2.15988 -0.106074 5.42254 -33.2957 42.809 -6.63457 6.89801 -16.66 2.50611 18.3379 9.43342 -18.1258 -6.26366 -1.00022 7.52145 -27.514 -0.762775 
149.422 17.8096 122.533 83.3573 -0.31496 -85.2203 0 0 0 10.8878 -5.04352 -1.73854 -14.8553 5.01342 -0.0466861 11.9796 -40.8675 7.46866 -6.12395 9.99025 7.34494 16.2005 -0.637527 -7.6142 -15.9795 -54.7515 -41.8539 15.6072 -4.11359 -104.402 -9.50859 -0.402224 4.83334 -14.0313 -0.478932 9.03157 2.10382 -56.3346 15.2918 -6.42647 -2.26479 109.333 3.19311 -0.0170752 -1.00704 8.15078 -0.432605 12.7852 -2.84697 25.4588 -12.4489 6.12377 2.58849 -0.138975 5.63767 -33.6185 43.1986 -6.69609 6.999 -16.4851 2.40719 18.4584 9.59383 -17.2957 -6.57849 -1.00195 7.54667 -27.4804 -0.50685 
149.404 17.8294 122.522 83.4256 -0.427152 -85.1453 0 0 0 11.1955 -5.0098 -1.86439 -15.8188 4.71837 -0.031177 13.4095 -39.5764 7.32519 -7.24314 8.68983 7.57879 17.1688 -0.74252 -7.77496 -16.2506 -54.6413 -41.3686 15.3064 -4.06088 -104.507 -9.58117 -0.405654 4.83757 -12.2541 -0.299929 9.5051 -0.0419055 -56.2767 14.682 -5.85482 -2.00968 108.88 2.81576 -0.0163604 -0.894847 8.04178 -0.678704 12.7249 -2.72682 25.7876 -12.6061 5.30774 1.98577 -0.091282 5.24284 -32.8582 43.6884 -6.80584 6.96445 -16.6898 2.40955 18.4132 9.65383 -17.4448 -6.46967 -0.993463 7.42328 -27.1095 -0.654202 
149.416 17.8546 122.519 83.4653 -0.419399 -85.0797 0 0 0 11.2054 -4.99669 -1.93006 -15.8463 4.65752 -0.116675 13.434 -39.9612 7.65215 -7.01632 9.18923 7.75934 17.0776 -0.729764 -7.70829 -16.0142 -54.5818 -41.2354 15.4227 -4.11798 -104.59 -9.54519 -0.407023 4.87219 -11.3814 -0.187173 8.72769 0.918739 -56.2573 17.2591 -6.17768 -2.05735 108.349 2.93082 -0.0156879 -0.930326 8.05892 -0.821446 12.7695 -2.74491 25.9867 -12.4836 5.88282 1.88721 -0.0974088 4.99032 -32.4109 43.7375 -6.78222 6.97531 -16.7939 2.46814 18.2872 9.64409 -17.9426 -6.22274 -0.983418 7.81813 -28.8783 -1.42654 
149.456 17.8415 122.514 83.3514 -0.307845 -85.2272 0 0 0 11.2235 -5.09375 -1.84878 -15.4532 5.08236 -0.0796 12.3469 -40.9573 7.63411 -6.15161 10.1028 7.45684 16.2658 -0.632742 -7.42817 -15.6833 -54.8982 -41.6325 15.2379 -4.0083 -104.392 -9.56585 -0.388319 4.63833 -13.1761 -0.394201 9.11657 1.52152 -56.4037 15.8595 -6.16688 -2.114 108.85 2.9008 -0.0150628 -0.972727 8.22809 -0.59401 12.8801 -2.84158 25.7624 -12.6102 5.98127 2.61147 -0.136575 5.85339 -33.8125 44.3948 -6.62898 7.0311 -16.5728 2.42322 18.3349 9.57845 -18.1454 -6.28117 -1.00382 7.53134 -27.5873 -0.845154 
